<svg width="46" height="46" viewBox="0 0 46 46" fill="none" xmlns="http://www.w3.org/2000/svg">
<g id="ic:round-close">
<path id="Vector" d="M35.0749 10.9441C34.8976 10.7664 34.687 10.6255 34.4551 10.5293C34.2233 10.4331 33.9747 10.3836 33.7237 10.3836C33.4727 10.3836 33.2241 10.4331 32.9922 10.5293C32.7604 10.6255 32.5498 10.7664 32.3724 10.9441L22.9999 20.2974L13.6274 10.9249C13.45 10.7475 13.2393 10.6067 13.0075 10.5107C12.7756 10.4147 12.5271 10.3652 12.2762 10.3652C12.0252 10.3652 11.7767 10.4147 11.5449 10.5107C11.3131 10.6067 11.1024 10.7475 10.9249 10.9249C10.7475 11.1024 10.6067 11.3131 10.5107 11.5449C10.4147 11.7767 10.3652 12.0252 10.3652 12.2762C10.3652 12.5271 10.4147 12.7756 10.5107 13.0075C10.6067 13.2393 10.7475 13.45 10.9249 13.6274L20.2974 22.9999L10.9249 32.3724C10.7475 32.5499 10.6067 32.7606 10.5107 32.9924C10.4147 33.2242 10.3652 33.4727 10.3652 33.7237C10.3652 33.9746 10.4147 34.2231 10.5107 34.455C10.6067 34.6868 10.7475 34.8975 10.9249 35.0749C11.1024 35.2524 11.3131 35.3931 11.5449 35.4892C11.7767 35.5852 12.0252 35.6346 12.2762 35.6346C12.5271 35.6346 12.7756 35.5852 13.0075 35.4892C13.2393 35.3931 13.45 35.2524 13.6274 35.0749L22.9999 25.7024L32.3724 35.0749C32.5499 35.2524 32.7606 35.3931 32.9924 35.4892C33.2242 35.5852 33.4727 35.6346 33.7237 35.6346C33.9746 35.6346 34.2231 35.5852 34.455 35.4892C34.6868 35.3931 34.8975 35.2524 35.0749 35.0749C35.2524 34.8975 35.3931 34.6868 35.4892 34.455C35.5852 34.2231 35.6346 33.9746 35.6346 33.7237C35.6346 33.4727 35.5852 33.2242 35.4892 32.9924C35.3931 32.7606 35.2524 32.5499 35.0749 32.3724L25.7024 22.9999L35.0749 13.6274C35.8033 12.8991 35.8033 11.6724 35.0749 10.9441Z" fill="white"/>
</g>
</svg>
