<svg width="25" height="25" viewBox="0 0 25 25" fill="white" xmlns="http://www.w3.org/2000/svg">
<g id="mingcute:menu-fill" clip-path="url(#clip0_2_6702)">
<g id="Group">
<path id="Vector" d="M20.2448 17.8979C20.63 17.8981 21.0003 18.0465 21.2791 18.3124C21.5579 18.5782 21.7238 18.9411 21.7423 19.3259C21.7608 19.7106 21.6306 20.0878 21.3786 20.3792C21.1266 20.6705 20.7722 20.8538 20.3888 20.8909L20.2448 20.8979H4.24475C3.85953 20.8978 3.48916 20.7494 3.21036 20.4835C2.93157 20.2177 2.76574 19.8548 2.74723 19.47C2.72871 19.0853 2.85894 18.7081 3.11093 18.4167C3.36291 18.1254 3.71733 17.9421 4.10075 17.9049L4.24475 17.8979H20.2448ZM20.2448 10.8979C20.6426 10.8979 21.0241 11.056 21.3054 11.3373C21.5867 11.6186 21.7448 12.0001 21.7448 12.3979C21.7448 12.7958 21.5867 13.1773 21.3054 13.4586C21.0241 13.7399 20.6426 13.8979 20.2448 13.8979H4.24475C3.84693 13.8979 3.4654 13.7399 3.18409 13.4586C2.90279 13.1773 2.74475 12.7958 2.74475 12.3979C2.74475 12.0001 2.90279 11.6186 3.18409 11.3373C3.4654 11.056 3.84693 10.8979 4.24475 10.8979H20.2448ZM20.2448 3.89795C20.6426 3.89795 21.0241 4.05598 21.3054 4.33729C21.5867 4.61859 21.7448 5.00012 21.7448 5.39795C21.7448 5.79577 21.5867 6.1773 21.3054 6.45861C21.0241 6.73991 20.6426 6.89795 20.2448 6.89795H4.24475C3.84693 6.89795 3.4654 6.73991 3.18409 6.45861C2.90279 6.1773 2.74475 5.79577 2.74475 5.39795C2.74475 5.00012 2.90279 4.61859 3.18409 4.33729C3.4654 4.05598 3.84693 3.89795 4.24475 3.89795H20.2448Z" fill="#3A8EF6"/>
</g>
</g>
<defs>
<clipPath id="clip0_2_6702">
<rect width="24" height="24" fill="white" transform="translate(0.244751 0.397949)"/>
</clipPath>
</defs>
</svg>
