<svg width="32" height="33" viewBox="0 0 32 33" fill="none" xmlns="http://www.w3.org/2000/svg">
<path fill-rule="evenodd" clip-rule="evenodd" d="M18.6667 8.80603C16.8142 8.80603 15.4167 10.2036 15.4167 12.056V17.206H12.75V19.0394H15.4167V28.6394H17.9167V18.906H21.3353L21.7213 17.0727H17.9167V12.456C17.9167 12.2071 17.9794 11.8826 18.2363 11.6257C18.4933 11.3688 18.8177 11.306 19.0667 11.306H21.9167V8.80603H18.6667ZM13.9167 12.056C13.9167 9.37515 15.9858 7.30603 18.6667 7.30603H22.2667C22.5156 7.30603 22.8401 7.36877 23.097 7.6257C23.3539 7.88263 23.4167 8.20709 23.4167 8.45603V11.656C23.4167 11.905 23.3539 12.2294 23.097 12.4864C22.8401 12.7433 22.5156 12.806 22.2667 12.806H19.4167V15.5727H22.1333C22.5576 15.5727 22.8755 15.8005 23.0574 16.0733C23.2245 16.324 23.2833 16.6114 23.2833 16.856V16.9341L22.7425 19.503C22.7125 19.7286 22.599 19.8908 22.523 19.9785C22.4284 20.0876 22.3215 20.1645 22.2359 20.2158C22.0861 20.3057 21.8511 20.406 21.6 20.406H19.4167V30.1394H13.9167V20.5394H12.4C12.1511 20.5394 11.8266 20.4766 11.5697 20.2197C11.3127 19.9628 11.25 19.6383 11.25 19.3894V16.856C11.25 16.6071 11.3127 16.2826 11.5697 16.0257C11.8266 15.7688 12.1511 15.706 12.4 15.706H13.9167V12.056Z" fill="white"/>
<path fill-rule="evenodd" clip-rule="evenodd" d="M5.36362 5.41965C4.07309 6.71018 3.41663 8.79663 3.41663 12.056V20.056C3.41663 23.3154 4.07309 25.4018 5.36362 26.6923C6.65415 27.9829 8.7406 28.6393 12 28.6393H20C23.2593 28.6393 25.3458 27.9829 26.6363 26.6923C27.9268 25.4018 28.5833 23.3154 28.5833 20.056V12.056C28.5833 8.79663 27.9268 6.71018 26.6363 5.41965C25.3458 4.12912 23.2593 3.47266 20 3.47266H12C8.7406 3.47266 6.65415 4.12912 5.36362 5.41965ZM4.30296 4.35899C6.01243 2.64952 8.59265 1.97266 12 1.97266H20C23.4073 1.97266 25.9875 2.64952 27.697 4.35899C29.4064 6.06846 30.0833 8.64868 30.0833 12.056V20.056C30.0833 23.4633 29.4064 26.0435 27.697 27.753C25.9875 29.4625 23.4073 30.1393 20 30.1393H12C8.59265 30.1393 6.01243 29.4625 4.30296 27.753C2.59349 26.0435 1.91663 23.4633 1.91663 20.056V12.056C1.91663 8.64868 2.59349 6.06846 4.30296 4.35899Z" fill="white"/>
</svg>
