<svg width="32" height="33" viewBox="0 0 32 33" fill="none" xmlns="http://www.w3.org/2000/svg">
<path fill-rule="evenodd" clip-rule="evenodd" d="M1.91663 16.056C1.91663 8.30844 8.25241 1.97266 16 1.97266C23.7475 1.97266 30.0833 8.30844 30.0833 16.056C30.0833 23.8035 23.7475 30.1393 16 30.1393C13.5781 30.1393 11.1569 29.4975 9.09856 28.3316L4.55565 29.6296C3.25355 30.0016 2.04044 28.8172 2.3812 27.5066L3.60139 22.8136C2.565 20.785 1.91663 18.491 1.91663 16.056ZM16 3.47266C9.08084 3.47266 3.41663 9.13687 3.41663 16.056C3.41663 18.3155 4.04421 20.4619 5.06172 22.3697C5.15032 22.5358 5.1732 22.7292 5.12583 22.9114L3.83294 27.884C3.78425 28.0713 3.95755 28.2405 4.14357 28.1873L8.99392 26.8015C9.19352 26.7445 9.40783 26.7727 9.58583 26.8795C11.4679 28.0088 13.7343 28.6393 16 28.6393C22.9191 28.6393 28.5833 22.9751 28.5833 16.056C28.5833 9.13687 22.9191 3.47266 16 3.47266Z" fill="white"/>
<path fill-rule="evenodd" clip-rule="evenodd" d="M12.1572 10.806C11.9441 10.806 11.7044 10.8883 11.4331 11.1549L11.4274 11.1605L11.4216 11.166C11.1784 11.395 11.0154 11.64 10.9141 11.897L10.9125 11.9009C10.8062 12.1664 10.75 12.4611 10.75 12.78C10.75 13.2865 10.8668 13.841 11.1233 14.4495C11.386 15.0668 11.7523 15.7016 12.2177 16.3479C12.6923 16.9986 13.2251 17.6224 13.8169 18.2193C14.4148 18.8103 15.0402 19.3429 15.6991 19.8235C16.3432 20.2917 16.9851 20.6584 17.6186 20.9279C18.2344 21.1899 18.7894 21.306 19.2839 21.306C19.6095 21.306 19.9018 21.2461 20.1676 21.1356L20.1716 21.1339C20.4231 21.031 20.6577 20.8669 20.886 20.6158C21.0077 20.4816 21.0995 20.3403 21.1718 20.1874C21.2273 20.07 21.25 19.9574 21.25 19.854C21.25 19.8048 21.2416 19.754 21.2141 19.6816C21.2081 19.6711 21.1921 19.6502 21.1469 19.619L21.1396 19.6139L19.1572 18.2085C19.0378 18.1279 18.9483 18.0802 18.8801 18.0523C18.8518 18.0408 18.8321 18.0354 18.8199 18.0328C18.808 18.0304 18.801 18.03 18.7972 18.03L18.7947 18.0301M16.6957 18.9175L16.6612 18.9037L16.626 18.8851C16.3562 18.7425 16.0519 18.5257 15.7173 18.2429L15.7163 18.2421C15.3783 17.9556 15.0514 17.6476 14.7209 17.3237L14.7159 17.3187L14.7109 17.3137C14.385 16.982 14.0858 16.652 13.8078 16.3312L13.8023 16.3249C13.5247 15.9973 13.3012 15.6946 13.1575 15.4316L13.1255 15.3729L13.1074 15.3188L13.1034 15.3091C13.1028 15.3077 13.1021 15.3061 13.1013 15.3044C13.0939 15.287 13.0797 15.2534 13.0655 15.2157L13.0505 15.1757L13.0401 15.1342C13.0157 15.0369 12.9996 14.9332 12.9996 14.814C12.9996 14.5386 13.0954 14.2669 13.3094 14.0498L13.7674 13.5744L13.7725 13.5693C13.8827 13.4593 13.9501 13.3684 13.9863 13.3046L13.9923 13.294L13.9986 13.2836C14.0091 13.2664 14.013 13.2554 14.0143 13.251C14.0145 13.2502 14.0147 13.2496 14.0148 13.2491C14.0144 13.2469 14.0138 13.2435 14.0128 13.2391C14.0096 13.2252 14.0032 13.2044 13.9918 13.1778L13.9869 13.1664C13.9595 13.0995 13.9133 13.013 13.8323 12.9007L13.8293 12.8965L12.4302 10.9274C12.4046 10.8905 12.375 10.8659 12.3301 10.8452L12.3198 10.8404C12.2772 10.82 12.2206 10.806 12.1572 10.806M13.109 15.3225C13.109 15.3226 13.109 15.3226 13.109 15.3225V15.3225ZM10.3874 10.0795C10.8841 9.59355 11.4837 9.30603 12.1572 9.30603C12.4285 9.30603 12.7066 9.36336 12.963 9.48524C13.2273 9.60801 13.471 9.79747 13.6601 10.0687L15.0506 12.0256C15.184 12.2108 15.2925 12.3977 15.3727 12.592C15.4548 12.785 15.5151 13.0105 15.5151 13.248C15.5151 13.5389 15.4303 13.8128 15.2858 14.0537C15.1676 14.2598 15.011 14.4517 14.8378 14.6253L14.5841 14.8887C14.6674 15.0102 14.7852 15.1644 14.9441 15.352C15.2046 15.6525 15.4798 15.9557 15.7759 16.2574C16.0923 16.5673 16.3886 16.8456 16.6859 17.0976C16.8764 17.2585 17.0334 17.3755 17.158 17.4576L17.4098 17.2095C17.5842 17.0356 17.7817 16.8712 18.0022 16.7524C18.2379 16.6136 18.5023 16.53 18.7972 16.53C19.0211 16.53 19.2375 16.578 19.4474 16.6637C19.6425 16.7434 19.8276 16.8506 20.0057 16.9715L20.0119 16.9758L22.0039 18.3879C22.2548 18.5622 22.4609 18.7902 22.5902 19.0836L22.5953 19.0953L22.6001 19.1071C22.6876 19.3257 22.75 19.571 22.75 19.854C22.75 20.1827 22.6766 20.514 22.5278 20.8287C22.3958 21.1077 22.2232 21.3743 21.9965 21.6241C21.6365 22.0203 21.2225 22.3242 20.7418 22.5213C20.2871 22.7102 19.7989 22.806 19.2839 22.806C18.5526 22.806 17.7977 22.6342 17.0314 22.3082C16.2829 21.9897 15.5428 21.5644 14.8169 21.0367L14.8159 21.036C14.094 20.5094 13.4105 19.927 12.7596 19.2833L12.7544 19.2782C12.1099 18.6284 11.5263 17.9456 11.0044 17.2299L11.0019 17.2264C10.4827 16.5057 10.0564 15.7735 9.7425 15.0356L9.74158 15.0334C9.42149 14.2744 9.25 13.5212 9.25 12.78C9.25 12.2837 9.33776 11.7991 9.51932 11.3451C9.70563 10.8731 9.99704 10.4487 10.3874 10.0795Z" fill="white"/>
</svg>
