<svg width="32" height="33" viewBox="0 0 32 33" fill="none" xmlns="http://www.w3.org/2000/svg">
<path fill-rule="evenodd" clip-rule="evenodd" d="M5.03029 7.75307C4.02321 8.76015 3.41663 10.2265 3.41663 12.0561V20.0561C3.41663 21.8856 4.02321 23.352 5.03029 24.3591C6.03737 25.3662 7.50373 25.9727 9.33329 25.9727H22.6666C24.4962 25.9727 25.9625 25.3662 26.9696 24.3591C27.9767 23.352 28.5833 21.8856 28.5833 20.0561V12.0561C28.5833 10.2265 27.9767 8.76015 26.9696 7.75307C25.9625 6.74599 24.4962 6.1394 22.6666 6.1394H9.33329C7.50373 6.1394 6.03737 6.74599 5.03029 7.75307ZM3.96963 6.69241C5.29588 5.36616 7.16286 4.6394 9.33329 4.6394H22.6666C24.8371 4.6394 26.704 5.36616 28.0303 6.69241C29.3565 8.01866 30.0833 9.88563 30.0833 12.0561V20.0561C30.0833 22.2265 29.3565 24.0935 28.0303 25.4197C26.704 26.746 24.8371 27.4727 22.6666 27.4727H9.33329C7.16286 27.4727 5.29588 26.746 3.96963 25.4197C2.64338 24.0935 1.91663 22.2265 1.91663 20.0561V12.0561C1.91663 9.88563 2.64338 8.01866 3.96963 6.69241Z" fill="white"/>
<path fill-rule="evenodd" clip-rule="evenodd" d="M13.8747 13.1557C13.7792 13.2108 13.5499 13.441 13.5499 14.1894V18.1894C13.5499 18.7575 13.7506 18.9848 13.8747 19.0564C13.9927 19.1245 14.29 19.1941 14.8141 18.8796L18.1311 16.8894C18.583 16.5837 18.6833 16.2942 18.6833 16.1227C18.6833 15.9513 18.583 15.6618 18.1311 15.3561L14.8141 13.3659C14.2568 13.0315 13.9689 13.1014 13.8747 13.1557ZM13.1251 11.8564C13.8976 11.4108 14.8097 11.614 15.5858 12.0796L18.9191 14.0796C18.9293 14.0857 18.9394 14.0921 18.9493 14.0987C19.6856 14.5896 20.1833 15.296 20.1833 16.1227C20.1833 16.9495 19.6856 17.6559 18.9493 18.1468C18.9394 18.1534 18.9293 18.1597 18.9191 18.1659L15.5858 20.1659C14.7765 20.6514 13.8739 20.7877 13.1251 20.3557C12.3826 19.9273 12.0499 19.088 12.0499 18.1894V14.1894C12.0499 13.2045 12.3539 12.3014 13.1251 11.8564Z" fill="white"/>
</svg>
